# xmcd
#
# Track frame offsets: 
#        150
#        16692
#        33790
#        49756
#        74718
#        90167
#        119887
#        136361
#        151142
#        166129
#        182145
#        208783
#        241018
#        272094
#        302536
#        319517
#        334449
#
# Disc length: 4701 seconds
#
# Revision: 0
# Processed by: cddbd v1.5.2PL0 Copyright (c) Steve Scherf et al.
# Submitted via: ExactAudioCopy v1.0b3
#
DISCID=e3125b11
DTITLE=Various Artist - DeeJay Parade Vol. 3 - CD 1
DYEAR=1900
DGENRE=
TTITLE0=Aquagen - Ihr Seid So Leise! (Video Edit)
TTITLE1=Blank and Jones - After Love (New Short Cut)
TTITLE2=Lightforce - Eternity (Short Mix)
TTITLE3=Miss Thunderpussy - The Ride (Fragma Remix)
TTITLE4=D.O.N.S. - Ritmo Infernal (La Fiesta !) (Single Mix)
TTITLE5=Das Licht - Weltlichter (ß-Mix)
TTITLE6=Pulsedriver - I Dominate U (Single Version)
TTITLE7=Axel Konrad - R.U.F.F. - Beat (Radio Mix)
TTITLE8=DJ Tom Stevens Vs. Fridge - Outface 2000 (DJ Tom Stevens Radio
TTITLE8=Edit)
TTITLE9=Jonah - Sssst... (Listen) (Radio Edit)
TTITLE10=Pacific Link - Once Upon A Time (Pacific Mix Edit)
TTITLE11=M.S.N.Y. - The Beginning (Ibiza Mix)
TTITLE12=Modus - Down The Keys
TTITLE13=Tek - Sonicate (Kai Tracid Remix)
TTITLE14=T.B.R. - Trancewave (Radio Edit)
TTITLE15=DJ Taylor and Flow - Gott Tanzte (Original Radio)
TTITLE16=Rollergirl - Dear Jessie (Radio Edit)
EXTD=
EXTT0=
EXTT1=
EXTT2=
EXTT3=
EXTT4=
EXTT5=
EXTT6=
EXTT7=
EXTT8=
EXTT9=
EXTT10=
EXTT11=
EXTT12=
EXTT13=
EXTT14=
EXTT15=
EXTT16=
PLAYORDER=
